<svg xmlns="http://www.w3.org/2000/svg" width="658.829" height="768.039" viewBox="0 0 658.829 768.039">
  <defs>
    <style>
      .cls-1 {
        fill: #edb197;
      }

      .cls-2 {
        fill: #f05454;
      }
    </style>
  </defs>
  <g id="Group_1" data-name="Group 1" transform="translate(-630.364 -642.151)">
    <path id="Path_1" data-name="Path 1" class="cls-1" d="M1277.75,1283.31c-15.03-45.68-46.18-85.27-85.52-111.83-29.1-19.64-63.51-30.67-98.11-35.37-37.19-5.05-74.85-3.27-112.11.03a273.039,273.039,0,0,1-73.37-3.55c-24.07-4.4-46.44-10.12-71.19-7.13-9.03,1.09-16.24,2.54-23.11,8.82-3.73,3.41-7.46,7.89-9.08,12.76-1.71,5.11-6.47,20.77,10.55,36.43s45.96,21.79,77.96,23.49c32.34-.34,45.95-.68,70.12,1.02,15.22,3.07,37.09,9.16,44.28,24.88-10.14,3.77-25.41,3.25-36.44,5.13a331.107,331.107,0,0,1-49.6,4.61,348.141,348.141,0,0,1-178.22-45.7c-22.47-12.89-43.16-37.36-67.22-45.65-8.97-3.1-19.67-3.57-28.53.19-1.84.78-20.16,13.44-17.54,16.37,51.03,57.11,113.73,105.69,186.83,130.68,63.2,21.6,127.45,21.61,193.38,17.93,61.26-3.42,115.58.61,172.62,23.82,22.17,9.01,40.27,24.66,54.96,43.81,1,1.3,17.43,25.51,16.21,26.14C1301.26,1386.05,1291.68,1325.65,1277.75,1283.31ZM855.13,1181.68s-26.56-1.02-35.49-7.66c-5.14-3.82-9.09-9.75-9.84-16.19-.77-6.7,3.38-12.71,8.77-16.48,6.72-4.71,15.87-4.92,23.79-4.81,2.45.03,18.35,1.83,18.35,1.99C855.63,1151.06,850.35,1168.42,855.13,1181.68Z"/>
    <path id="Path_2" data-name="Path 2" class="cls-1" d="M971.383,1223.638a337.576,337.576,0,0,1-80.341,7.149c-22.233-.674-44.633-2.672-66.165-8.507a153.572,153.572,0,0,1-31.191-12c-10.025-5.255-18.314-10.461-25.283-19.407q-12.243-15.714-24.483-31.431c-18.573-23.843-37.921-47.275-55.677-71.722-7.111-9.791-15.194-18.407-21-29.209-2.144-3.991-4.112-8.568-2.874-12.926s5.505-7.32,9.933-8.248c22.156-4.645,42.759,15.77,55.834,30.637,13.17,14.968,26.458,30.127,38.694,45.873,4.563,5.873,8.679,12.106,13.971,17.4,1.208,1.21,17.439,13.578,18.708,10-2.91,8.2-5.079,15.243-2.578,23.723a60.357,60.357,0,0,0,15.589,25.99c10.1,9.864,21.308,12.993,34.412,16.591a199.994,199.994,0,0,0,35.981,6.547c12.509,1.073,24.765-.967,37.325-.6C939.642,1214.009,955.228,1217.789,971.383,1223.638Z"/>
    <path id="Path_3" data-name="Path 3" class="cls-1" d="M822.957,1121.936s54.383-12,69.192,0c0,0,1.787-5.617-8.935-17.1-13.344-14.3-27.2-29.3-38.3-45.448-5.617-8.17-12.511-17.872-25.022-37.022a153.8,153.8,0,0,0-13.727-17.973c-5.194-5.869-11.531-11.39-18.868-14.643-6.739-2.988-16.879-5.022-23.513-.825-4.7,2.975-6.737,10.969-4.913,16.079,1.888,5.289,6.989,10.393,10.158,15.071a333.6,333.6,0,0,1,18.73,30.92c7.374,13.922,13.26,28.612,19.552,43.028C811.455,1103.51,814.162,1115.727,822.957,1121.936Z"/>
    <path id="Path_4" data-name="Path 4" class="cls-1" d="M1005.255,1128.319c-29.593,3.735-63.35,6.876-90.33-8.194-26.705-14.916-32.709-47.716-42.035-74.137-5.727-16.222-13.07-33.822-25.676-45.987-.547-.528,1.909-4.991,2.188-5.475,1.936-3.363,4.887-6.1,8.817-6.785,7.722-1.341,15.041,3.372,21.135,7.489,20.566,13.893,31.243,35.644,42.621,56.9a228.3,228.3,0,0,0,11.666,19.9c8.829,13.112,20.3,24.347,32.985,33.713C973.027,1110.467,1004.05,1128.473,1005.255,1128.319Z"/>
    <path id="Path_5" data-name="Path 5" class="cls-2" d="M1064.489,701.426c-78.127-101.107-216-64.341-229.28,45.957s170.046,263.489,170.046,263.489,227.365-73.361,256.37-180.6S1174.8,636.948,1064.489,701.426Z"/>
  </g>
</svg>
